<svg width="32" height="32" viewBox="0 0 32 32" fill="none" xmlns="http://www.w3.org/2000/svg">
  <defs>
    <linearGradient id="bg" x1="0" y1="0" x2="0" y2="32" gradientUnits="userSpaceOnUse">
      <stop stop-color="#3b82f6"/>
      <stop offset="1" stop-color="#2563eb"/>
    </linearGradient>
  </defs>
  <!-- фон -->
  <rect width="32" height="32" rx="7" fill="url(#bg)"/>
  <!-- круговая стрелка 360° (орбита панорамы) -->
  <path d="M9 20.5 A8 8 0 1 1 23 20.5" stroke="#ffffff" stroke-width="2" stroke-linecap="round" opacity="0.55"/>
  <path d="M22.4 16.6 L23.3 20.9 L19 20.1 Z" fill="#ffffff" opacity="0.55"/>
  <!-- здания (силуэт объекта) -->
  <rect x="11.5" y="12" width="4.2" height="10" rx="0.8" fill="#ffffff"/>
  <rect x="16.3" y="15" width="4.2" height="7" rx="0.8" fill="#ffffff"/>
  <!-- окна -->
  <rect x="12.6" y="13.6" width="1" height="1" rx="0.2" fill="#3b82f6"/>
  <rect x="14.6" y="13.6" width="1" height="1" rx="0.2" fill="#3b82f6"/>
  <rect x="12.6" y="16" width="1" height="1" rx="0.2" fill="#3b82f6"/>
  <rect x="14.6" y="16" width="1" height="1" rx="0.2" fill="#3b82f6"/>
  <rect x="17.4" y="16.8" width="1" height="1" rx="0.2" fill="#2563eb"/>
  <rect x="18.9" y="16.8" width="1" height="1" rx="0.2" fill="#2563eb"/>
</svg>
